<?xml version="1.0" standalone="no"?>
<!DOCTYPE svg PUBLIC "-//W3C//DTD SVG 1.1//EN" "http://www.w3.org/Graphics/SVG/1.1/DTD/svg11.dtd" >
<svg xmlns="http://www.w3.org/2000/svg">
<metadata></metadata>
<defs>
<font id="ravensbourne_sansextrabold" horiz-adv-x="1415" >
<font-face units-per-em="2048" ascent="1542" descent="-506" />
<missing-glyph horiz-adv-x="499" />
<glyph horiz-adv-x="0" />
<glyph horiz-adv-x="682" />
<glyph unicode=" "  horiz-adv-x="499" />
<glyph unicode="&#x09;" horiz-adv-x="499" />
<glyph unicode="&#xa0;" horiz-adv-x="499" />
<glyph unicode="!" horiz-adv-x="593" d="M94 172q0 85 59.5 139t147.5 54t147.5 -54t59.5 -139t-59.5 -138.5t-147.5 -53.5t-147.5 53.5t-59.5 138.5zM127 1507h344l-55 -1030h-234z" />
<glyph unicode="&#x22;" horiz-adv-x="907" d="M53 901l62 553h319l-139 -553h-242zM483 901l62 553h321l-141 -553h-242z" />
<glyph unicode="#" horiz-adv-x="1306" d="M51 268v236h240l41 262h-228v231h265l53 346h215l-55 -346h254l55 346h213l-53 -346h211l-2 -231h-246l-39 -262h231l-2 -236h-266l-57 -366h-213l55 366h-254l-57 -366h-215l59 366h-205zM506 504h254l41 262h-254z" />
<glyph unicode="$" horiz-adv-x="1150" d="M61 209l195 240q81 -77 174.5 -114.5t175.5 -37.5q58 0 91.5 25t33.5 65q0 46 -40 76.5t-154 64.5q-58 17 -100 31.5t-91 36t-83.5 43.5t-68.5 54t-54.5 68t-33 83.5t-12.5 103.5q0 163 99 274t274 138v235h252v-247q201 -45 350 -168l-188 -238q-161 111 -301 111 q-127 0 -127 -82q0 -37 40 -66t138 -59q69 -20 116 -36t99.5 -38.5t87 -45.5t67.5 -54.5t51.5 -68t30 -84t11.5 -105.5q0 -168 -100.5 -277t-274.5 -139v-217h-252v217q-231 39 -406 211z" />
<glyph unicode="%" horiz-adv-x="2080" d="M59 1065q0 171 116 289.5t298 118.5q177 0 297.5 -113.5t120.5 -294.5q0 -174 -116.5 -294t-301.5 -120q-174 0 -294 116t-120 298zM307 1061q0 -83 49 -136t121 -53q75 0 122.5 54.5t47.5 134.5q0 83 -49 135.5t-121 52.5q-74 0 -122 -54.5t-48 -133.5zM602 47l649 1442 l234 -103l-649 -1441zM1192 391q0 173 116 291.5t300 118.5q174 0 294.5 -114.5t120.5 -295.5q0 -113 -51 -206t-146.5 -149t-217.5 -56q-175 0 -295.5 115t-120.5 296zM1438 389q0 -83 50 -135.5t122 -52.5q74 0 122 54.5t48 133.5q0 83 -49 136t-121 53q-75 0 -123.5 -55 t-48.5 -134z" />
<glyph unicode="&#x26;" horiz-adv-x="1349" d="M59 434q0 265 258 426l-149 199q19 184 148 300t317 116q328 0 479 -314l-260 -96q-33 62 -75.5 99t-112.5 38q-70 0 -107 -37.5t-47 -83.5l410 -544q32 79 32 172l297 8q0 -255 -127 -447v-6l199 -264h-354l-66 86h-2q-135 -106 -354 -106q-206 0 -346 127.5t-140 326.5 zM377 455q0 -85 56.5 -136t144.5 -51q81 0 153 37v6l-246 328q-108 -65 -108 -184z" />
<glyph unicode="'" horiz-adv-x="475" d="M53 901l62 553h319l-139 -553h-242z" />
<glyph unicode="(" horiz-adv-x="632" d="M86 602q0 270 66 511t192 425l231 -104q-98 -180 -150 -394t-52 -438q0 -453 202 -829l-233 -105q-125 186 -190.5 426t-65.5 508z" />
<glyph unicode=")" horiz-adv-x="632" d="M84 -227q203 378 203 829q0 224 -52.5 438t-150.5 394l231 104q126 -184 192 -425t66 -511q0 -268 -65.5 -508t-190.5 -426z" />
<glyph unicode="*" horiz-adv-x="792" d="M55 1028l170 84l-170 90l97 164l159 -104l-8 192h186l-10 -192l162 102l96 -162l-172 -88l170 -86l-94 -164l-158 105l6 -195h-186l8 195l-159 -103z" />
<glyph unicode="+" horiz-adv-x="1159" d="M90 430v275h350v352h277v-352h350v-275h-350v-348h-277v348h-350z" />
<glyph unicode="," horiz-adv-x="516" d="M76 170q0 84 60.5 141t150.5 56q90 -2 148.5 -64.5t58.5 -185.5q0 -142 -82 -247.5t-230 -166.5l-84 117q111 104 140 178q-73 5 -117.5 51.5t-44.5 120.5z" />
<glyph unicode="-" horiz-adv-x="778" d="M76 485v295h626v-295h-626z" />
<glyph unicode="." horiz-adv-x="563" d="M76 172q0 85 59.5 139t147.5 54t147 -54t59 -139t-59 -138.5t-147 -53.5t-147.5 53.5t-59.5 138.5z" />
<glyph unicode="/" horiz-adv-x="899" d="M-53 -121l780 1749l231 -106l-778 -1749z" />
<glyph unicode="0" horiz-adv-x="1257" d="M61 705q0 218 67 380t196.5 251t308.5 89q262 0 414.5 -191.5t152.5 -528.5q0 -333 -150.5 -529t-416.5 -196t-419 193t-153 532zM406 705q0 -192 57.5 -304t169.5 -112q107 0 166 105t59 311q0 192 -57 301.5t-168 109.5q-107 0 -167 -104t-60 -307z" />
<glyph unicode="1" horiz-adv-x="1040" d="M23 1096l440 311h266v-1108h262v-299h-891v299h295v709l-215 -160z" />
<glyph unicode="2" horiz-adv-x="1116" d="M84 215l410 428q111 114 155.5 179.5t44.5 127.5q0 78 -46 124t-134 46q-165 0 -369 -116l-55 307q119 58 222 86t239 28q218 0 347.5 -118t129.5 -334q0 -123 -56.5 -236t-180.5 -233l-213 -205h464v-299h-954z" />
<glyph unicode="3" horiz-adv-x="1107" d="M51 82l84 317q63 -53 169 -88t202 -35q100 0 153.5 39t53.5 109q0 71 -51 117.5t-144 46.5h-123v264h148q71 0 108 36t37 91q0 66 -59 105.5t-160 39.5q-161 0 -322 -102l-8 4l-55 305q74 29 126 45.5t145 32.5t194 16q216 0 339.5 -95.5t123.5 -285.5q0 -99 -46 -180 t-128 -135v-4q102 -49 159.5 -135.5t57.5 -204.5q0 -198 -141.5 -301.5t-393.5 -103.5q-133 0 -240 20t-229 82z" />
<glyph unicode="4" horiz-adv-x="1196" d="M39 221v203l661 983h263v-907h190v-279h-190v-221h-324v221h-600zM391 481h275v432z" />
<glyph unicode="5" horiz-adv-x="1097" d="M35 82l84 317q66 -52 164 -85t186 -33q125 0 191.5 52t66.5 134q0 86 -66 134t-145 48q-67 0 -114.5 -14.5t-98.5 -52.5l-174 65l45 760h817v-299h-534l-13 -221q99 26 177 26q189 0 315.5 -124.5t126.5 -327.5q0 -215 -155 -348t-410 -133q-125 0 -231.5 20t-231.5 82z " />
<glyph unicode="6" horiz-adv-x="1165" d="M57 637q0 126 20 235t70 211.5t127 174.5t198.5 115.5t277.5 43.5q123 0 268 -37v-2l-4 -303q-151 49 -260 49q-94 0 -161.5 -19.5t-110.5 -60t-66.5 -93t-34.5 -126.5l2 -2q133 82 315 82q87 0 163 -29t134 -84t91.5 -142t33.5 -195q0 -93 -27.5 -171.5t-75 -133.5 t-113 -93t-140.5 -56.5t-158 -18.5q-245 0 -397 172t-152 483zM371 543q14 -134 79 -200.5t156 -66.5q85 0 138 53.5t53 133.5q0 90 -56 137t-131 47q-66 0 -130 -28t-109 -76z" />
<glyph unicode="7" horiz-adv-x="1011" d="M23 1108v299h933v-213l-481 -1227l-330 58l449 1083h-571z" />
<glyph unicode="8" horiz-adv-x="1134" d="M33 389q0 135 64.5 230t168.5 139v8q-65 32 -111 111t-46 172q0 181 125.5 278.5t330.5 97.5q207 0 334 -98.5t127 -277.5q0 -92 -48.5 -171t-113.5 -112v-6q106 -44 172 -139t66 -232q0 -189 -145.5 -298t-391.5 -109t-389 109.5t-143 297.5zM375 434q0 -71 54.5 -121.5 t135.5 -50.5q85 0 139 51.5t54 120.5q0 76 -53 125t-140 49q-84 0 -137 -49t-53 -125zM414 1024q0 -59 41.5 -96t109.5 -37q70 0 111 37t41 96q0 55 -42 93t-110 38q-67 0 -109 -38.5t-42 -92.5z" />
<glyph unicode="9" horiz-adv-x="1122" d="M51 930q0 150 67.5 264t179.5 172.5t249 58.5q250 0 396.5 -174t146.5 -463q0 -85 -5.5 -157.5t-23.5 -157.5t-47 -153t-79.5 -133.5t-118.5 -109.5t-167 -70.5t-221 -26.5q-150 0 -303 36l55 291q131 -51 232 -51q73 0 130.5 17t95 45.5t64.5 71t41.5 88t22.5 102.5 q-122 -84 -277 -84q-186 0 -312 118t-126 316zM369 940q0 -79 54.5 -126.5t135.5 -47.5q60 0 117 27t96 71q-12 129 -70.5 199t-150.5 70q-81 0 -131.5 -54.5t-50.5 -138.5z" />
<glyph unicode=":" horiz-adv-x="555" d="M74 172q0 85 59.5 139t147.5 54t147 -54t59 -139t-59 -138.5t-147 -53.5t-147.5 53.5t-59.5 138.5zM74 838q0 85 59.5 138.5t147.5 53.5t147 -53.5t59 -138.5t-59 -139t-147 -54t-147.5 54t-59.5 139z" />
<glyph unicode=";" horiz-adv-x="532" d="M70 840q0 85 59 138.5t147 53.5t147.5 -53.5t59.5 -138.5t-59.5 -139t-147.5 -54t-147 54t-59 139zM86 170q0 84 60.5 141t150.5 56q90 -2 148.5 -64.5t58.5 -185.5q0 -142 -81.5 -247.5t-229.5 -166.5l-84 117q110 103 139 178q-73 5 -117.5 51.5t-44.5 120.5z" />
<glyph unicode="&#x3c;" horiz-adv-x="1167" d="M119 442v226l966 413v-301l-565 -223l565 -225v-295z" />
<glyph unicode="=" horiz-adv-x="1189" d="M117 195v274h979v-274h-979zM117 666v274h979v-274h-979z" />
<glyph unicode="&#x3e;" horiz-adv-x="1167" d="M109 37v295l565 225l-565 223v301l966 -413v-226z" />
<glyph unicode="?" horiz-adv-x="1052" d="M25 1053q0 102 30.5 184.5t80 135.5t115.5 89t134.5 51t140.5 15q239 0 374.5 -102.5t135.5 -286.5q0 -94 -29 -168t-74 -122t-114 -95q-158 -105 -166 -197l-8 -80h-283l-2 98q-1 88 43.5 156t126.5 139q92 79 115 105q47 54 47 115q0 67 -46.5 103t-123.5 36 q-29 0 -59 -9t-60 -29t-48.5 -59t-18.5 -92q0 -25 2 -39h-309q-4 24 -4 52zM305 172q0 85 59.5 139t147.5 54t147.5 -54t59.5 -139t-59.5 -138.5t-147.5 -53.5t-147.5 53.5t-59.5 138.5z" />
<glyph unicode="@" horiz-adv-x="1808" d="M72 494q0 77 14.5 157t48 165.5t82.5 163t123 147t164.5 120.5t211.5 81t259 30q177 0 323.5 -59t243.5 -162t150 -241.5t53 -297.5q0 -44 -5.5 -89t-20.5 -97t-38 -98t-61 -89.5t-86 -75t-116.5 -50.5t-149.5 -19q-116 0 -189 47q-46 34 -61 88h-6q-38 -51 -103.5 -83 t-128.5 -32q-151 0 -241 106.5t-90 280.5q0 54 11.5 115.5t39.5 128.5t69.5 120.5t107.5 88.5t146 35q140 0 217 -111h2l13 92h309l-57 -546q-2 -18 -2 -45q0 -43 14.5 -62.5t46.5 -19.5q43 0 79 34t57 84t32.5 101.5t11.5 93.5q0 157 -65 285t-196.5 207t-309.5 79 q-147 0 -269 -43.5t-200.5 -112.5t-133 -159t-77.5 -180t-23 -178q0 -128 46 -242.5t123 -195t182 -128t219 -47.5q206 0 411 115l93 -148q-231 -157 -504 -157q-163 0 -305.5 60.5t-244.5 166t-161 255t-59 321.5zM752 512q0 -66 34.5 -105.5t85.5 -39.5q65 0 115.5 55 t50.5 139q0 66 -34.5 107t-85.5 41q-63 0 -114.5 -56.5t-51.5 -140.5z" />
<glyph unicode="A" d="M10 0l533 1454h327l537 -1454h-358l-86 260h-510l-84 -260h-359zM547 551h321l-159 489h-4z" />
<glyph unicode="B" horiz-adv-x="1288" d="M127 0v1454h549q239 0 359 -92t120 -262q0 -67 -19 -125t-68 -111.5t-124 -85.5v-4q144 -39 215.5 -134t71.5 -234q0 -182 -119.5 -294t-345.5 -112h-639zM463 299h196q98 0 156.5 39.5t58.5 114.5q0 70 -54 111.5t-161 41.5h-196v-307zM463 874h162q80 0 132 36.5 t52 103.5q0 64 -49 101.5t-148 37.5h-149v-279z" />
<glyph unicode="C" horiz-adv-x="1406" d="M74 723q0 157 50 293t143 238.5t236 161.5t318 59q281 0 492 -107l-86 -348q-167 129 -396 129q-171 0 -285 -114.5t-114 -307.5q0 -182 117 -300t325 -118q113 0 202 32t190 97l73 -340q-102 -56 -235.5 -86t-259.5 -30q-128 0 -243.5 30.5t-211.5 92t-166.5 149.5 t-109.5 208t-39 261z" />
<glyph unicode="D" horiz-adv-x="1458" d="M127 0v1454h504q227 0 398.5 -92.5t263 -257.5t91.5 -379q0 -160 -51 -293.5t-145.5 -229.5t-235.5 -149t-315 -53h-510zM465 305h149q184 0 299 120t115 300q0 183 -111 303.5t-278 120.5h-174v-844z" />
<glyph unicode="E" horiz-adv-x="1189" d="M127 0v1454h948v-305h-612v-279h483v-301h-483v-264h655v-305h-991z" />
<glyph unicode="F" horiz-adv-x="1167" d="M127 0v1454h983v-305h-645v-328h532v-303h-532v-518h-338z" />
<glyph unicode="G" horiz-adv-x="1497" d="M74 713q0 163 51 302t146.5 241.5t242.5 160.5t330 58q256 0 504 -111l-76 -340q-201 125 -424 125q-186 0 -302 -113t-116 -307q0 -191 106 -311.5t287 -120.5q130 0 248 63v154h-278v289h608v-641q-99 -79 -256 -128.5t-322 -49.5q-158 0 -294 48.5t-237.5 139 t-159.5 230t-58 311.5z" />
<glyph unicode="H" horiz-adv-x="1456" d="M127 0v1454h344v-602h512v602h346v-1454h-346v547h-512v-547h-344z" />
<glyph unicode="I" horiz-adv-x="618" d="M135 0v1454h346v-1454h-346z" />
<glyph unicode="J" horiz-adv-x="1140" d="M31 123l133 336q161 -158 319 -158q100 0 149.5 68t49.5 219v866h344v-895q0 -285 -131.5 -432t-388.5 -147q-127 0 -254 37.5t-221 105.5z" />
<glyph unicode="K" horiz-adv-x="1347" d="M127 0v1454h342v-557h4l420 557h432l-522 -629l543 -825h-422l-346 549h-3l-106 -129v-420h-342z" />
<glyph unicode="L" horiz-adv-x="1124" d="M127 0v1454h344v-1149h610v-305h-954z" />
<glyph unicode="M" horiz-adv-x="1751" d="M127 0v1454h344l403 -770h5l401 770h344v-1454h-340v803h-4l-295 -537h-219l-295 535h-4v-801h-340z" />
<glyph unicode="N" horiz-adv-x="1503" d="M127 0v1454h342l565 -895v895h342v-1454h-352l-553 872h-2v-872h-342z" />
<glyph unicode="O" horiz-adv-x="1642" d="M74 727q0 162 55 301t152.5 237.5t237.5 154t304 55.5q215 0 385 -93.5t265.5 -264t95.5 -390.5q0 -219 -95.5 -389.5t-265.5 -264t-385 -93.5q-219 0 -390 95.5t-265 265.5t-94 386zM430 727q0 -181 111 -304.5t282 -123.5q168 0 278.5 123t110.5 305q0 184 -110.5 306 t-278.5 122q-171 0 -282 -123t-111 -305z" />
<glyph unicode="P" horiz-adv-x="1245" d="M127 0v1454h553q131 0 231.5 -37.5t162.5 -105.5t93 -158.5t31 -200.5q0 -237 -146 -360t-399 -123h-188v-469h-338zM465 770h143q112 0 174 50.5t62 140.5q0 86 -59.5 139t-172.5 53h-147v-383z" />
<glyph unicode="Q" horiz-adv-x="1667" d="M74 727q0 162 55 301t152.5 237.5t237.5 154t304 55.5q215 0 385 -93.5t265.5 -264t95.5 -390.5q0 -236 -111 -416l154 -135l-176 -227l-174 157q-183 -126 -439 -126q-219 0 -390 95.5t-265 265.5t-94 386zM432 727q0 -185 111.5 -306.5t279.5 -121.5q100 0 181 43 l-113 104l174 213l119 -104q28 82 28 172q0 180 -107.5 304t-281.5 124q-168 0 -279.5 -121.5t-111.5 -306.5z" />
<glyph unicode="R" horiz-adv-x="1318" d="M127 0v1454h567q131 0 231.5 -37.5t163 -105.5t94 -158.5t31.5 -200.5q0 -162 -70.5 -272t-199.5 -164v-4l340 -512h-401l-299 469h-119v-469h-338zM465 768h158q109 0 172 52t63 141q0 85 -59.5 138.5t-169.5 53.5h-164v-385z" />
<glyph unicode="S" horiz-adv-x="1157" d="M43 104l102 332q213 -143 428 -143q86 0 128 32.5t42 82.5q0 59 -45.5 93.5t-171.5 76.5q-77 26 -132 50t-117 64t-101 85.5t-64.5 114t-25.5 150.5q0 190 140 310t356 123h14q231 0 469 -97l-74 -334q-233 125 -393 125q-68 0 -113 -30.5t-45 -81.5q-1 -48 43 -80.5 t168 -79.5q184 -70 250 -108q134 -75 177 -191q24 -66 24 -152q0 -99 -33 -179.5t-86.5 -132.5t-124 -88t-143 -51t-146.5 -15q-321 0 -526 124z" />
<glyph unicode="T" horiz-adv-x="1191" d="M41 1149v305h1110v-305h-385v-1149h-340v1149h-385z" />
<glyph unicode="U" horiz-adv-x="1425" d="M111 606v848h346v-825q0 -141 66.5 -234.5t187.5 -93.5q115 0 187.5 88t72.5 240v825h344v-848q0 -288 -159 -457t-445 -169q-274 0 -437 164.5t-163 461.5z" />
<glyph unicode="V" horiz-adv-x="1400" d="M16 1454h371l313 -969h2l316 969h368l-532 -1454h-301z" />
<glyph unicode="W" horiz-adv-x="2091" d="M27 1454h364l246 -893h4l225 893h361l221 -893h4l246 893h364l-454 -1454h-314l-243 956h-2l-254 -956h-314z" />
<glyph unicode="X" horiz-adv-x="1437" d="M27 0l465 731l-449 723h393l281 -457h6l281 457h389l-445 -723l463 -731h-399l-289 469h-6l-291 -469h-399z" />
<glyph unicode="Y" horiz-adv-x="1292" d="M-4 1454h391l254 -481h8l250 481h397l-479 -821v-633h-346v633z" />
<glyph unicode="Z" horiz-adv-x="1247" d="M80 0v266l629 877v6h-607v305h1063v-260l-647 -883v-6h647v-305h-1085z" />
<glyph unicode="[" horiz-adv-x="718" d="M115 -307v1812h530v-233h-258v-1344h258v-235h-530z" />
<glyph unicode="\" horiz-adv-x="905" d="M-33 1522l232 106l780 -1749l-234 -106z" />
<glyph unicode="]" horiz-adv-x="718" d="M98 -72h258v1344h-258v233h531v-1812h-531v235z" />
<glyph unicode="^" horiz-adv-x="929" d="M80 1024l274 430h217l279 -430h-252l-133 238l-143 -238h-242z" />
<glyph unicode="_" horiz-adv-x="1071" d="M-18 -55h1108v-211h-1108v211z" />
<glyph unicode="`" horiz-adv-x="1013" d="M164 1419l389 -2l197 -325h-318z" />
<glyph unicode="a" horiz-adv-x="1054" d="M47 295q0 155 107.5 241.5t304.5 86.5h194q-3 68 -42 104.5t-134 36.5q-100 0 -299 -51l-41 258q183 51 404 51q79 0 141.5 -11t117 -39.5t90.5 -74.5t56.5 -118.5t20.5 -168.5v-610h-295l-10 82h-5q-120 -100 -280 -100q-161 0 -245.5 86t-84.5 227zM356 317 q0 -46 28.5 -74t78.5 -28q49 0 88.5 12.5t60 31t31 35t10.5 28.5v106l-155 -2q-142 -3 -142 -109z" />
<glyph unicode="b" horiz-adv-x="1230" d="M104 0v1507h322v-612h4q109 127 285 127q201 0 330 -137t129 -361q0 -250 -141.5 -396t-373.5 -146q-168 0 -303 96l-22 -78h-230zM408 340q107 -78 215 -78q92 0 158.5 68.5t66.5 173.5t-62.5 169t-152.5 64q-98 0 -161.5 -74t-63.5 -204v-119z" />
<glyph unicode="c" horiz-adv-x="1019" d="M57 496q0 238 155 382t421 144q186 0 332 -76l-54 -311q-135 100 -280 100q-114 0 -182 -65.5t-68 -173.5q0 -104 67 -167t197 -63q73 0 133 16.5t144 59.5l67 -287q-174 -75 -356 -75q-276 0 -426 140.5t-150 375.5z" />
<glyph unicode="d" horiz-adv-x="1226" d="M57 483q0 162 72 286t191.5 188.5t265.5 64.5q114 0 215 -49v534h319v-1216q0 -131 78 -203l-272 -145q-80 67 -103 180q-102 -141 -303 -141q-195 0 -329 140t-134 361zM383 483q0 -102 62 -162.5t147 -60.5q41 0 79.5 16t70.5 48.5t51.5 88.5t19.5 128v131 q-77 65 -178 65q-106 0 -179 -70.5t-73 -183.5z" />
<glyph unicode="e" horiz-adv-x="1097" d="M57 518q0 217 145.5 360.5t366.5 143.5q152 0 262.5 -66.5t165 -179.5t54.5 -258q0 -57 -9 -102h-661q45 -174 313 -174q140 0 281 61l33 -262q-67 -29 -167.5 -44t-183.5 -15q-293 0 -446.5 145.5t-153.5 390.5zM377 604l364 2q-13 77 -60 118.5t-114 41.5 q-72 0 -123.5 -42.5t-66.5 -119.5z" />
<glyph unicode="f" horiz-adv-x="702" d="M43 741v260h98v156q0 185 90 278t258 93q131 0 242 -27l-37 -287q-18 3 -47 8t-48 7t-40 2q-46 0 -71 -28t-25 -101v-101h190v-260h-190v-741h-322v741h-98z" />
<glyph unicode="g" horiz-adv-x="1099" d="M63 -416l64 260q172 -94 430 -94q92 0 153.5 32t61.5 77q0 25 -22.5 41t-65.5 23t-80.5 9t-91.5 2q-72 0 -132 -6t-121 -16t-81 -12q-57 60 -82.5 120t-25.5 132q0 138 106 266q-86 95 -86 239q0 163 121.5 264t331.5 101q121 0 209 -33l10 2l164 185l196 -201l-166 -141 q48 -79 48 -177q0 -165 -122 -263.5t-358 -98.5q-85 0 -170 20q-37 -47 -37 -106q0 -28 11 -57q162 43 331 43q441 0 441 -334q0 -72 -34.5 -135.5t-100.5 -113t-172 -78t-240 -28.5q-287 0 -490 78zM410 659q0 -58 37.5 -96.5t93.5 -38.5q59 0 97 37.5t38 97.5 q0 61 -37.5 99.5t-97.5 38.5q-55 0 -93 -39t-38 -99z" />
<glyph unicode="h" horiz-adv-x="1193" d="M104 0v1507h322v-622q119 137 311 137q363 0 363 -418v-604h-322v526q0 117 -39 163t-127 46q-87 0 -136.5 -57.5t-49.5 -171.5v-506h-322z" />
<glyph unicode="i" horiz-adv-x="552" d="M70 1321q0 85 59 138.5t147 53.5t147.5 -53.5t59.5 -138.5t-59.5 -139t-147.5 -54t-147 54t-59 139zM117 0v1001h317v-1001h-317z" />
<glyph unicode="j" horiz-adv-x="655" d="M-43 -467l43 287q14 -2 36 -6t34.5 -6t30 -3.5t34.5 -1.5q47 0 72.5 27.5t25.5 99.5v811h-190v260h510v-1124q0 -185 -90 -278t-258 -93q-137 0 -248 27zM174 1329q0 85 59.5 139t147.5 54t147.5 -54t59.5 -139t-59.5 -138.5t-147.5 -53.5t-147.5 53.5t-59.5 138.5z" />
<glyph unicode="k" horiz-adv-x="1093" d="M104 0v1507h322v-837h2l291 331h371l-345 -391l353 -610h-355l-208 367h-5l-104 -119v-248h-322z" />
<glyph unicode="l" horiz-adv-x="710" d="M117 373v1134h317v-1104q0 -74 29.5 -101.5t89.5 -27.5q45 0 117 17l37 -287q-111 -27 -224 -27q-186 0 -276 92t-90 304z" />
<glyph unicode="m" horiz-adv-x="1789" d="M104 0v1001h322v-112h4q56 65 129.5 99t151.5 34q199 0 286 -145h4q124 145 338 145q167 0 262 -106t95 -332v-584h-320v510q0 225 -145 225q-74 0 -121 -60t-47 -173v-502h-320v510q0 225 -145 225q-78 0 -125 -60t-47 -173v-502h-322z" />
<glyph unicode="n" horiz-adv-x="1183" d="M104 0v1001h322v-120q123 141 303 141q361 0 361 -422v-600h-322v522q0 119 -37.5 166t-122.5 47q-84 0 -133 -58.5t-49 -172.5v-504h-322z" />
<glyph unicode="o" horiz-adv-x="1202" d="M55 500q0 230 151 376t396 146q242 0 393.5 -145t151.5 -377q0 -230 -152 -375t-393 -145q-244 0 -395.5 145.5t-151.5 374.5zM379 500q0 -99 62.5 -167.5t160.5 -68.5q95 0 158 68t63 168q0 103 -62 169t-159 66q-99 0 -161 -66.5t-62 -168.5z" />
<glyph unicode="p" horiz-adv-x="1230" d="M104 -471v1472h322v-108h4q114 129 295 129q194 0 321.5 -137.5t127.5 -362.5q0 -248 -139.5 -394t-364.5 -146q-149 0 -244 63v-516h-322zM408 340q107 -78 206 -78q97 0 165.5 68.5t68.5 175.5q0 104 -63 167.5t-154 63.5q-97 0 -160 -74t-63 -204v-119z" />
<glyph unicode="q" horiz-adv-x="1224" d="M57 489q0 120 38.5 220.5t106 168.5t159.5 106t198 38q155 0 285 -78l16 57h262v-1167q0 -78 11.5 -122.5t44.5 -96.5l-291 -145q-47 49 -65.5 109t-18.5 145v368h-4q-98 -110 -273 -110q-199 0 -334 140.5t-135 366.5zM383 483q0 -102 62 -162.5t147 -60.5q41 0 79.5 16 t70.5 48.5t51.5 88.5t19.5 128v131q-77 65 -178 65q-106 0 -179 -70.5t-73 -183.5z" />
<glyph unicode="r" horiz-adv-x="786" d="M104 0v1001h322v-143h4q57 78 130 121t151 43q53 0 55 -2v-344q-62 16 -111 16q-101 0 -165 -67.5t-64 -194.5v-430h-322z" />
<glyph unicode="s" horiz-adv-x="882" d="M37 53l86 273q67 -46 148.5 -75.5t148.5 -29.5q104 0 104 62q0 23 -35.5 44t-136.5 52q-55 17 -96 33t-84 42.5t-69.5 58t-44 78t-17.5 103.5q0 155 112.5 241.5t295.5 86.5q88 0 163 -13t203 -48l-88 -273q-184 90 -301 90q-13 0 -26.5 -3t-27.5 -15.5t-14 -32.5 q0 -28 33.5 -50t118.5 -46q96 -28 154 -52.5t103.5 -61.5t64 -88t18.5 -126q0 -154 -103.5 -238.5t-293.5 -84.5q-224 0 -416 73z" />
<glyph unicode="t" horiz-adv-x="796" d="M25 741v260h112v220l322 186v-406h268v-260h-268v-329q0 -78 25 -107t85 -29q63 0 158 23l45 -291q-127 -31 -268 -31q-188 0 -277.5 91.5t-89.5 279.5v393h-112z" />
<glyph unicode="u" horiz-adv-x="1159" d="M90 408v593h320v-514q0 -121 35.5 -171t117.5 -50q77 0 126.5 61.5t49.5 178.5v495h322v-1001h-322v113h-6q-110 -131 -282 -131q-361 0 -361 426z" />
<glyph unicode="v" horiz-adv-x="1097" d="M14 1001h334l199 -618h4l194 618h336l-387 -1001h-291z" />
<glyph unicode="w" horiz-adv-x="1558" d="M18 1001h320l164 -536h4l147 536h250l150 -538h4l166 538h317l-340 -1001h-266l-156 559h-2l-151 -559h-269z" />
<glyph unicode="x" horiz-adv-x="1067" d="M18 0l336 516l-331 485h360l147 -247h5l149 247h358l-331 -485l340 -516h-346l-168 248h-5l-172 -248h-342z" />
<glyph unicode="y" horiz-adv-x="1089" d="M14 1001h332l203 -542h6l193 542h327l-551 -1472h-317l199 539z" />
<glyph unicode="z" horiz-adv-x="970" d="M55 0v213l432 524v8h-393v256h824v-210l-443 -527v-6h426v-258h-846z" />
<glyph unicode="{" horiz-adv-x="718" d="M66 483v234q49 1 83.5 11.5t52 24.5t26.5 39t10.5 41t1.5 44v354q0 116 69.5 195t179.5 79h170v-207h-43q-34 0 -57.5 -14t-34 -36t-14.5 -41t-4 -38v-342q0 -92 -26 -145t-81 -80v-4q41 -17 61 -34.5t33 -63.5t13 -129v-330q0 -72 21 -104.5t89 -32.5h43v-207h-170 q-105 0 -177 76t-72 198v351q0 28 -1 43t-5.5 37t-16 33.5t-30 24t-49 18t-72.5 5.5z" />
<glyph unicode="|" horiz-adv-x="647" d="M195 -236v1745h258v-1745h-258z" />
<glyph unicode="}" horiz-adv-x="718" d="M84 -96h43q68 0 89.5 33t21.5 104v330q0 64 6 104t21 64t31.5 35.5t47.5 23.5v4q-55 27 -80.5 80t-25.5 145v342q0 19 -4 38t-15 41t-34.5 36t-57.5 14h-43v207h170q111 0 180.5 -79t69.5 -195v-354q0 -28 1.5 -44t10.5 -41t26.5 -39t52 -24.5t83.5 -11.5v-234 q-42 0 -72.5 -5.5t-49 -18t-30 -24t-16 -33.5t-5.5 -37t-1 -43v-351q0 -122 -72.5 -198t-177.5 -76h-170v207z" />
<glyph unicode="~" horiz-adv-x="1148" d="M84 469q41 126 119.5 204.5t185.5 78.5q47 0 91 -9.5t64.5 -18t55.5 -24.5q61 -28 119 -28q76 0 133 86l215 -74q-39 -129 -118 -213t-183 -84q-16 0 -33 1.5t-29.5 3t-29 5.5t-25.5 6t-26 7.5t-22.5 7.5t-23 8.5t-20.5 7.5q-75 35 -127 35q-74 0 -131 -88z" />
<glyph unicode="&#xa1;" horiz-adv-x="593" d="M94 827q0 85 59.5 139t147.5 54t147.5 -54t59.5 -139t-59.5 -138.5t-147.5 -53.5t-147.5 53.5t-59.5 138.5zM127 -508l55 1030h234l55 -1030h-344z" />
<glyph unicode="&#xa2;" horiz-adv-x="1085" d="M59 610q0 198 112.5 335.5t301.5 174.5v172h246v-172q203 -38 315 -188l-213 -182q-86 96 -209 96q-104 0 -166.5 -64.5t-62.5 -167.5t64.5 -170t166.5 -67q123 0 207 92l219 -193q-111 -135 -321 -174v-186h-246v184q-185 34 -299.5 172.5t-114.5 337.5z" />
<glyph unicode="&#xa3;" horiz-adv-x="1142" d="M76 0v303h121v315h-105v230h105v72q0 134 35.5 234t98.5 157.5t140 84.5t168 27q120 0 233.5 -52t188.5 -146l-166 -215q-45 50 -102 79t-107 29q-31 0 -54.5 -8.5t-46 -30t-34.5 -67.5t-12 -113v-51h297v-230h-293v-315h555v-303h-1022z" />
<glyph unicode="&#xa4;" horiz-adv-x="1032" d="M20 444l168 168q-47 80 -47 183q0 101 47 184l-168 168l144 141l168 -166q84 49 182 49q97 0 184 -49l166 168l144 -143l-166 -166q49 -87 49 -186q0 -98 -49 -185l166 -166l-144 -143l-166 168q-87 -49 -184 -49q-100 0 -184 49l-166 -166zM356 799q0 -65 47 -111.5 t111 -46.5t111 46.5t49 111.5q0 65 -47.5 111t-112.5 48q-64 -1 -110 -47.5t-48 -111.5z" />
<glyph unicode="&#xa5;" horiz-adv-x="1228" d="M-8 1405h397l223 -485h4l222 485h399l-297 -547h125v-147h-207l-49 -90h256v-148h-277v-473h-348v473h-297v148h277l-49 90h-228v147h146z" />
<glyph unicode="&#xa6;" horiz-adv-x="647" d="M195 -233v718h258v-718h-258zM195 788v721h258v-721h-258z" />
<glyph unicode="&#xa7;" horiz-adv-x="1110" d="M84 -113l182 219q69 -69 145.5 -103t141.5 -34q44 0 71 22.5t27 57.5q0 38 -30 62.5t-123 58.5q-82 32 -133 54.5t-110.5 57.5t-92 69.5t-54.5 83.5t-22 108q0 182 139 270q-98 88 -98 234q0 159 113.5 261.5t304.5 102.5q112 0 234 -47.5t210 -122.5l-178 -219 q-140 98 -250 98q-50 0 -74 -19.5t-24 -47.5q0 -32 26.5 -53t112.5 -58q15 -7 45 -19q55 -23 80.5 -34t68.5 -31t63 -32t50.5 -32t44.5 -36t32 -39.5t25.5 -47.5t13 -53.5t5.5 -64.5q0 -76 -37.5 -142t-105.5 -112q102 -88 102 -244q0 -171 -119 -269.5t-315 -98.5 q-277 0 -471 200zM395 602q0 -43 38 -75.5t155 -77.5q9 -4 27.5 -11.5t27.5 -11.5q37 10 55.5 33.5t18.5 50.5t-12 46t-56.5 45.5t-134.5 62.5q-7 3 -21.5 8t-21.5 8q-40 -8 -58 -30.5t-18 -47.5z" />
<glyph unicode="&#xa8;" horiz-adv-x="1085" d="M111 1272q0 85 59 138.5t147 53.5t147.5 -53.5t59.5 -138.5t-59.5 -139t-147.5 -54t-147 54t-59 139zM569 1272q0 85 59.5 138.5t147.5 53.5t147.5 -53.5t59.5 -138.5t-59.5 -139t-147.5 -54t-147.5 54t-59.5 139z" />
<glyph unicode="&#xa9;" horiz-adv-x="1464" d="M74 651q0 177 86.5 329t238.5 242.5t334 90.5t333.5 -90t238 -242t86.5 -330q0 -176 -87 -328t-240 -242.5t-335 -90.5q-136 0 -258 53t-208.5 142t-137.5 211t-51 255zM272 647q0 -126 59.5 -231.5t165 -167.5t232.5 -62q195 0 328 136t133 329t-132.5 328t-326.5 135 q-128 0 -234 -63t-165.5 -170t-59.5 -234zM410 647q0 144 90.5 239t249.5 95q73 0 143.5 -31t122.5 -96l-127 -109q-60 68 -139 68q-66 0 -110 -43.5t-44 -122.5q0 -71 41.5 -118.5t112.5 -47.5q39 0 76 19t63 49l127 -113q-103 -123 -266 -123q-93 0 -169 36.5 t-123.5 113.5t-47.5 184z" />
<glyph unicode="&#xaa;" horiz-adv-x="788" d="M39 1106q0 139 75 226t193 87q112 0 187 -84h2v72h217v-604h-217v53h-2q-65 -68 -172 -68q-128 0 -205.5 88.5t-77.5 229.5zM264 1106q0 -52 32.5 -82.5t82.5 -30.5q47 0 78.5 31.5t31.5 81.5q0 48 -32.5 79.5t-77.5 31.5q-49 0 -82 -32t-33 -79z" />
<glyph unicode="&#xab;" horiz-adv-x="1062" d="M84 506l238 420h299l-242 -420l239 -412h-301zM537 506l239 420h299l-241 -420l239 -412h-301z" />
<glyph unicode="&#xac;" horiz-adv-x="1093" d="M78 618v271h940v-606h-275v335h-665z" />
<glyph unicode="&#xad;" horiz-adv-x="778" d="M76 485v295h626v-295h-626z" />
<glyph unicode="&#xae;" horiz-adv-x="1476" d="M74 651q0 134 51.5 257t139.5 214t212 145t262 54q183 0 336 -91t240.5 -245t87.5 -334q0 -133 -52 -255.5t-140.5 -213t-213 -144.5t-262.5 -54q-136 0 -259 53t-211 143t-139.5 213t-51.5 258zM272 647q0 -195 134 -331t329 -136q130 0 237.5 63.5t167.5 171.5t60 236 q0 196 -133 332.5t-328 136.5q-199 0 -333 -138t-134 -335zM496 324v663h264q120 0 180.5 -64.5t60.5 -170.5q0 -144 -116 -199l149 -229h-200l-125 202h-43v-202h-170zM666 680h55q44 0 71 20t27 56q0 32 -26 53.5t-72 21.5h-55v-151z" />
<glyph unicode="&#xaf;" horiz-adv-x="894" d="M106 1135v262h682v-262h-682z" />
<glyph unicode="&#xb0;" horiz-adv-x="761" d="M86 1186q0 118 88.5 203.5t206.5 85.5t206.5 -86.5t88.5 -206.5q0 -117 -87.5 -201t-207.5 -84q-122 0 -208.5 84.5t-86.5 204.5zM276 1184q0 -43 30 -73t73 -30q44 0 73 30t29 73q0 44 -30 75t-72 31t-72.5 -31.5t-30.5 -74.5z" />
<glyph unicode="&#xb1;" horiz-adv-x="1214" d="M104 729v275h351v352h276v-352h350v-275h-350v-348h-276v348h-351zM133 -6v274h979v-274h-979z" />
<glyph unicode="&#xb2;" horiz-adv-x="700" d="M47 1055l252 243q115 109 115 175q0 59 -99 59q-93 0 -229 -68l-23 222q152 65 302 65q141 0 217.5 -72t76.5 -184q0 -90 -39 -153.5t-110 -127.5l-115 -102h271v-219h-615z" />
<glyph unicode="&#xb3;" horiz-adv-x="700" d="M39 932l24 215q149 -68 246 -68q109 0 109 78q0 74 -111 74h-71v176h88q42 0 65 16.5t23 44.5q0 36 -28.5 55t-96.5 19q-104 0 -199 -51l-29 213q120 45 273 45q309 0 309 -233q0 -125 -102 -191q131 -59 131 -201q0 -118 -83 -184t-241 -66q-145 0 -307 58z" />
<glyph unicode="&#xb4;" horiz-adv-x="1013" d="M268 1090l201 325l387 2l-268 -327h-320z" />
<glyph unicode="&#xb5;" horiz-adv-x="1171" d="M102 -406v1407h320v-505q0 -121 39 -176.5t121 -55.5q75 0 122.5 61t47.5 175v501h319v-1001h-295l-16 113h-6q-95 -131 -244 -131q-67 0 -107 24l-8 -6q27 -125 27 -236v-170h-320z" />
<glyph unicode="&#xb6;" horiz-adv-x="1101" d="M106 973q0 190 132 305t362 115h363v-1393h-410v557q-203 18 -325 126t-122 290z" />
<glyph unicode="&#xb7;" horiz-adv-x="569" d="M92 504q0 85 59.5 138.5t147.5 53.5t147.5 -53.5t59.5 -138.5t-59.5 -139t-147.5 -54t-147.5 54t-59.5 139z" />
<glyph unicode="&#xb8;" horiz-adv-x="739" d="M162 -268q54 -15 114 -15q97 0 97 56q0 67 -172 67v80l49 92h170l-43 -73l2 -5q95 -5 147 -50t52 -126q0 -82 -67.5 -129t-209.5 -47q-51 0 -139 10v140z" />
<glyph unicode="&#xb9;" horiz-adv-x="690" d="M14 1542l289 195h186v-625h175v-219h-603l-4 219h189v326l-111 -80z" />
<glyph unicode="&#xba;" horiz-adv-x="765" d="M39 1106q0 138 93 225.5t241 87.5t241 -87.5t93 -225.5q0 -141 -93 -228t-241 -87t-241 87t-93 228zM268 1106q0 -50 30 -82.5t75 -32.5t75.5 32.5t30.5 82.5q0 49 -30 81t-76 32t-75.5 -32t-29.5 -81z" />
<glyph unicode="&#xbb;" horiz-adv-x="1062" d="M16 926h299l240 -420l-236 -412h-301l240 412zM471 926h299l238 -420l-234 -412h-301l240 412z" />
<glyph unicode="&#xbc;" horiz-adv-x="1771" d="M23 1262l288 194h187v-625h174v-219h-602l-4 219h188v326l-111 -80zM498 47l649 1442l233 -103l-647 -1441zM1030 123v143l408 578h188v-514h109v-207h-109v-123h-242v123h-354zM1251 311h158v244z" />
<glyph unicode="&#xbd;" horiz-adv-x="1929" d="M23 1262l288 194h187v-625h174v-219h-602l-4 219h188v326l-111 -80zM498 47l649 1442l233 -103l-647 -1441zM1194 162l252 244q115 109 115 174q0 59 -99 59q-93 0 -229 -68l-23 222q152 65 301 65q141 0 218 -72t77 -184q0 -90 -38.5 -153t-110.5 -127l-113 -101v-2h268 v-219h-614z" />
<glyph unicode="&#xbe;" horiz-adv-x="1734" d="M61 651l25 215q147 -67 246 -67q108 0 108 78q0 73 -110 73h-72v176h88q42 0 65 17t23 45q0 36 -28.5 55t-96.5 19q-101 0 -198 -52l-29 213q120 45 272 45q310 0 310 -233q0 -119 -101 -188v-3q129 -61 129 -200q0 -118 -82.5 -184t-240.5 -66q-149 0 -308 57zM461 47 l649 1442l233 -103l-647 -1441zM993 123v143l408 578h188v-514h109v-207h-109v-123h-241v123h-355zM1214 311h158v244z" />
<glyph unicode="&#xbf;" horiz-adv-x="915" d="M-70 -139q0 94 29 168t74 122t114 95q158 105 166 196l9 80h282l2 -98q1 -88 -43.5 -156t-126.5 -139q-92 -79 -113 -103q-49 -55 -49 -116q0 -67 46.5 -103t123.5 -36q30 0 59.5 9t59.5 28.5t49 58.5t19 92q0 25 -2 39h309q4 -24 4 -51q0 -102 -30.5 -184.5t-80 -135.5 t-116 -89t-135 -51t-140.5 -15q-239 0 -374.5 102.5t-135.5 286.5zM248 827q0 85 59.5 139t147.5 54t147.5 -54t59.5 -139t-59.5 -138.5t-147.5 -53.5t-147.5 53.5t-59.5 138.5z" />
<glyph unicode="&#xc0;" d="M10 0l533 1454h327l537 -1454h-358l-86 260h-510l-84 -260h-359zM270 1927l389 -2l197 -326h-317zM547 551h321l-159 489h-4z" />
<glyph unicode="&#xc1;" d="M10 0l533 1454h327l537 -1454h-358l-86 260h-510l-84 -260h-359zM547 551h321l-159 489h-4zM573 1597l201 326l387 2l-268 -328h-320z" />
<glyph unicode="&#xc2;" d="M10 0l533 1454h327l537 -1454h-358l-86 260h-510l-84 -260h-359zM317 1593l236 332h295l250 -332h-303l-84 142h-13l-82 -142h-299zM547 551h321l-159 489h-4z" />
<glyph unicode="&#xc3;" d="M10 0l533 1454h327l537 -1454h-358l-86 260h-510l-84 -260h-359zM268 1663q39 124 110 199t169 75q44 0 84.5 -11t55.5 -19t52 -29q1 -1 17 -9.5t19.5 -10.5t16.5 -8t19.5 -7.5t17 -3.5t19.5 -2q70 0 121 100l196 -63q-37 -133 -107.5 -214t-166.5 -81q-95 0 -191 61 l-23 11.5t-24.5 12t-20.5 8.5t-24 7t-22 2q-71 0 -119 -102zM547 551h321l-159 489h-4z" />
<glyph unicode="&#xc4;" d="M10 0l533 1454h327l537 -1454h-358l-86 260h-510l-84 -260h-359zM272 1780q0 85 59.5 138.5t147.5 53.5t147.5 -53.5t59.5 -138.5t-59.5 -139t-147.5 -54t-147.5 54t-59.5 139zM547 551h321l-159 489h-4zM731 1780q0 85 59.5 138.5t147.5 53.5t147.5 -53.5t59.5 -138.5 t-59.5 -139t-147.5 -54t-147.5 54t-59.5 139z" />
<glyph unicode="&#xc5;" d="M10 0l533 1454h327l537 -1454h-358l-86 260h-510l-84 -260h-359zM461 1792q0 99 69 167.5t177 68.5q103 0 174 -66.5t71 -169.5q0 -101 -68.5 -170.5t-176.5 -69.5q-103 0 -174.5 68.5t-71.5 171.5zM547 551h321l-159 489h-4zM631 1794q0 -32 21.5 -54t52.5 -22 q33 0 55 22.5t22 55.5q0 30 -22 52t-55 22q-30 0 -52 -23t-22 -53z" />
<glyph unicode="&#xc6;" horiz-adv-x="1935" d="M-2 0l700 1454h1127v-305h-617v-279h496v-297h-496v-268h658v-305h-994v260h-393l-123 -260h-358zM614 551h258v543h-2z" />
<glyph unicode="&#xc7;" horiz-adv-x="1449" d="M74 723q0 157 50 293t143 238.5t236 161.5t318 59q281 0 492 -107l-86 -348q-167 129 -396 129q-171 0 -285 -114.5t-114 -307.5q0 -182 117 -300t325 -118q113 0 202 32t190 97l73 -340q-100 -56 -232.5 -86t-256.5 -30l-27 -45l2 -5q95 -5 147 -50t52 -126 q0 -82 -67 -129t-209 -47q-52 0 -140 10v140q54 -15 115 -15q96 0 96 56q0 67 -172 67v80l41 76q-133 22 -244.5 79.5t-194.5 148t-129 219t-46 282.5z" />
<glyph unicode="&#xc8;" horiz-adv-x="1189" d="M127 0v1454h948v-305h-612v-279h483v-301h-483v-264h655v-305h-991zM276 1925l390 -2l196 -326h-317z" />
<glyph unicode="&#xc9;" horiz-adv-x="1189" d="M127 0v1454h948v-305h-612v-279h483v-301h-483v-264h655v-305h-991zM383 1595l201 326l387 2l-269 -328h-319z" />
<glyph unicode="&#xca;" horiz-adv-x="1189" d="M127 0v1454h948v-305h-612v-279h483v-301h-483v-264h655v-305h-991zM227 1591l236 332h295l250 -332h-303l-84 142h-13l-82 -142h-299z" />
<glyph unicode="&#xcb;" horiz-adv-x="1189" d="M127 0v1454h948v-305h-612v-279h483v-301h-483v-264h655v-305h-991zM182 1778q0 85 59.5 138.5t147.5 53.5t147.5 -53.5t59.5 -138.5t-59.5 -139t-147.5 -54t-147.5 54t-59.5 139zM641 1778q0 85 59.5 138.5t147.5 53.5t147.5 -53.5t59.5 -138.5t-59.5 -139t-147.5 -54 t-147.5 54t-59.5 139z" />
<glyph unicode="&#xcc;" horiz-adv-x="618" d="M-104 1925l389 -2l196 -326h-317zM135 0v1454h346v-1454h-346z" />
<glyph unicode="&#xcd;" horiz-adv-x="618" d="M135 0v1454h346v-1454h-346zM172 1595l201 326l387 2l-268 -328h-320z" />
<glyph unicode="&#xce;" horiz-adv-x="618" d="M-84 1591l236 332h294l250 -332h-303l-84 142h-12l-82 -142h-299zM135 0v1454h346v-1454h-346z" />
<glyph unicode="&#xcf;" horiz-adv-x="618" d="M-129 1778q0 85 59.5 138.5t147.5 53.5t147.5 -53.5t59.5 -138.5t-59.5 -139t-147.5 -54t-147.5 54t-59.5 139zM135 0v1454h346v-1454h-346zM330 1778q0 85 59.5 138.5t147.5 53.5t147 -53.5t59 -138.5t-59 -139t-147 -54t-147.5 54t-59.5 139z" />
<glyph unicode="&#xd0;" horiz-adv-x="1458" d="M29 567v291h98v596h504q227 0 398.5 -92.5t263 -257.5t91.5 -379q0 -160 -51 -293.5t-145.5 -229.5t-235.5 -149t-315 -53h-510v567h-98zM465 305h149q184 0 299 120t115 300q0 183 -111 303.5t-278 120.5h-174v-291h190v-291h-190v-262z" />
<glyph unicode="&#xd1;" horiz-adv-x="1503" d="M127 0v1454h342l565 -895v895h342v-1454h-352l-553 872h-2v-872h-342zM319 1663q39 124 110 199t169 75q44 0 84.5 -11t56.5 -19t52 -29q4 -2 17.5 -9.5t18.5 -10t16.5 -8t18.5 -7.5t17.5 -4t19.5 -2q70 0 121 100l197 -63q-37 -133 -108 -214t-167 -81q-94 0 -190 61 l-23 11.5t-25 12t-20 8t-25 7.5t-22 2q-71 0 -119 -102z" />
<glyph unicode="&#xd2;" horiz-adv-x="1642" d="M74 727q0 162 55 301t152.5 237.5t237.5 154t304 55.5q215 0 385 -93.5t265.5 -264t95.5 -390.5q0 -219 -95.5 -389.5t-265.5 -264t-385 -93.5q-219 0 -390 95.5t-265 265.5t-94 386zM416 1927l389 -2l196 -326h-317zM430 727q0 -181 111 -304.5t282 -123.5 q168 0 278.5 123t110.5 305q0 184 -110.5 306t-278.5 122q-171 0 -282 -123t-111 -305z" />
<glyph unicode="&#xd3;" horiz-adv-x="1642" d="M74 727q0 162 55 301t152.5 237.5t237.5 154t304 55.5q215 0 385 -93.5t265.5 -264t95.5 -390.5q0 -219 -95.5 -389.5t-265.5 -264t-385 -93.5q-219 0 -390 95.5t-265 265.5t-94 386zM430 727q0 -181 111 -304.5t282 -123.5q168 0 278.5 123t110.5 305q0 184 -110.5 306 t-278.5 122q-171 0 -282 -123t-111 -305zM686 1597l201 326l387 2l-268 -328h-320z" />
<glyph unicode="&#xd4;" horiz-adv-x="1642" d="M74 727q0 162 55 301t152.5 237.5t237.5 154t304 55.5q215 0 385 -93.5t265.5 -264t95.5 -390.5q0 -219 -95.5 -389.5t-265.5 -264t-385 -93.5q-219 0 -390 95.5t-265 265.5t-94 386zM430 727q0 -181 111 -304.5t282 -123.5q168 0 278.5 123t110.5 305q0 184 -110.5 306 t-278.5 122q-171 0 -282 -123t-111 -305zM434 1593l236 332h295l249 -332h-303l-84 142h-12l-82 -142h-299z" />
<glyph unicode="&#xd5;" horiz-adv-x="1642" d="M74 727q0 162 55 301t152.5 237.5t237.5 154t304 55.5q215 0 385 -93.5t265.5 -264t95.5 -390.5q0 -219 -95.5 -389.5t-265.5 -264t-385 -93.5q-219 0 -390 95.5t-265 265.5t-94 386zM385 1663q39 124 110 199t169 75q44 0 84.5 -11t55.5 -19t52 -29q1 -1 17 -9.5 t19.5 -10.5t16.5 -8t19.5 -7.5t17 -3.5t19.5 -2q69 0 120 100l197 -63q-37 -133 -107.5 -214t-166.5 -81q-95 0 -191 61l-23 11.5t-25 12t-20 8t-25 7.5t-22 2q-70 0 -118 -102zM430 727q0 -181 111 -304.5t282 -123.5q168 0 278.5 123t110.5 305q0 184 -110.5 306 t-278.5 122q-171 0 -282 -123t-111 -305z" />
<glyph unicode="&#xd6;" horiz-adv-x="1642" d="M74 727q0 162 55 301t152.5 237.5t237.5 154t304 55.5q215 0 385 -93.5t265.5 -264t95.5 -390.5q0 -219 -95.5 -389.5t-265.5 -264t-385 -93.5q-219 0 -390 95.5t-265 265.5t-94 386zM389 1780q0 85 59.5 138.5t147.5 53.5t147.5 -53.5t59.5 -138.5t-59.5 -139 t-147.5 -54t-147.5 54t-59.5 139zM430 727q0 -181 111 -304.5t282 -123.5q168 0 278.5 123t110.5 305q0 184 -110.5 306t-278.5 122q-171 0 -282 -123t-111 -305zM848 1780q0 85 59.5 138.5t147.5 53.5t147.5 -53.5t59.5 -138.5t-59.5 -139t-147.5 -54t-147.5 54t-59.5 139z " />
<glyph unicode="&#xd7;" horiz-adv-x="1069" d="M76 301l266 268l-266 269l190 190l266 -266l271 268l192 -194l-268 -269l268 -268l-190 -190l-270 266l-267 -266z" />
<glyph unicode="&#xd8;" horiz-adv-x="1656" d="M74 727q0 162 55 301t152.5 237.5t237.5 154t304 55.5q255 0 445 -132l164 179l151 -140l-166 -180q152 -198 152 -475q0 -219 -95.5 -389.5t-265.5 -264t-385 -93.5q-235 0 -417 112l-156 -172l-154 141l152 166q-174 202 -174 500zM430 727q0 -127 59 -235l547 598 q-94 65 -213 65q-171 0 -282 -123t-111 -305zM637 346q83 -47 186 -47q168 0 278.5 123t110.5 305q0 116 -43 203z" />
<glyph unicode="&#xd9;" horiz-adv-x="1425" d="M111 606v848h346v-825q0 -141 66.5 -234.5t187.5 -93.5q115 0 187.5 88t72.5 240v825h344v-848q0 -288 -159 -457t-445 -169q-274 0 -437 164.5t-163 461.5zM319 1927l390 -2l196 -326h-317z" />
<glyph unicode="&#xda;" horiz-adv-x="1425" d="M111 606v848h346v-825q0 -141 66.5 -234.5t187.5 -93.5q115 0 187.5 88t72.5 240v825h344v-848q0 -288 -159 -457t-445 -169q-274 0 -437 164.5t-163 461.5zM539 1597l200 326l387 2l-268 -328h-319z" />
<glyph unicode="&#xdb;" horiz-adv-x="1425" d="M111 606v848h346v-825q0 -141 66.5 -234.5t187.5 -93.5q115 0 187.5 88t72.5 240v825h344v-848q0 -288 -159 -457t-445 -169q-274 0 -437 164.5t-163 461.5zM324 1593l235 332h295l250 -332h-303l-84 142h-12l-82 -142h-299z" />
<glyph unicode="&#xdc;" horiz-adv-x="1425" d="M111 606v848h346v-825q0 -141 66.5 -234.5t187.5 -93.5q115 0 187.5 88t72.5 240v825h344v-848q0 -288 -159 -457t-445 -169q-274 0 -437 164.5t-163 461.5zM279 1780q0 85 59 138.5t147 53.5t147.5 -53.5t59.5 -138.5t-59.5 -139t-147.5 -54t-147 54t-59 139zM737 1780 q0 85 59.5 138.5t147.5 53.5t147.5 -53.5t59.5 -138.5t-59.5 -139t-147.5 -54t-147.5 54t-59.5 139z" />
<glyph unicode="&#xdd;" horiz-adv-x="1292" d="M-4 1454h391l254 -481h8l250 481h397l-479 -821v-633h-346v633zM471 1597l201 326l387 2l-268 -328h-320z" />
<glyph unicode="&#xde;" horiz-adv-x="1294" d="M127 0v1454h338v-242h260q131 0 231 -37.5t161.5 -105t92.5 -158t31 -200.5q0 -233 -145.5 -356.5t-397.5 -123.5h-233v-231h-338zM465 532h184q113 0 175.5 50.5t62.5 136.5q0 85 -59.5 137.5t-172.5 52.5h-190v-377z" />
<glyph unicode="&#xdf;" horiz-adv-x="1275" d="M106 0v989q0 267 139 403t392 136q126 0 225 -32t159.5 -87t92 -124t31.5 -148q0 -78 -35 -152t-113 -125v-4q109 -56 171.5 -161.5t62.5 -237.5q0 -218 -126 -346.5t-341 -128.5h-178v280h100q101 0 162 59.5t61 151.5q0 96 -64.5 155.5t-176.5 59.5h-62v250h45 q92 1 137.5 51t45.5 115t-50.5 107t-140.5 42q-217 0 -217 -241v-1012h-320z" />
<glyph unicode="&#xe0;" horiz-adv-x="1054" d="M47 295q0 155 107.5 241.5t304.5 86.5h194q-3 68 -42 104.5t-134 36.5q-100 0 -299 -51l-41 258q183 51 404 51q79 0 141.5 -11t117 -39.5t90.5 -74.5t56.5 -118.5t20.5 -168.5v-610h-295l-10 82h-5q-120 -100 -280 -100q-161 0 -245.5 86t-84.5 227zM172 1466l389 -2 l197 -325h-318zM356 317q0 -46 28.5 -74t78.5 -28q49 0 88.5 12.5t60 31t31 35t10.5 28.5v106l-155 -2q-142 -3 -142 -109z" />
<glyph unicode="&#xe1;" horiz-adv-x="1054" d="M47 295q0 155 107.5 241.5t304.5 86.5h194q-3 68 -42 104.5t-134 36.5q-100 0 -299 -51l-41 258q183 51 404 51q79 0 141.5 -11t117 -39.5t90.5 -74.5t56.5 -118.5t20.5 -168.5v-610h-295l-10 82h-5q-120 -100 -280 -100q-161 0 -245.5 86t-84.5 227zM356 317 q0 -46 28.5 -74t78.5 -28q49 0 88.5 12.5t60 31t31 35t10.5 28.5v106l-155 -2q-142 -3 -142 -109zM358 1137l201 325l387 2l-268 -327h-320z" />
<glyph unicode="&#xe2;" horiz-adv-x="1054" d="M47 295q0 155 107.5 241.5t304.5 86.5h194q-3 68 -42 104.5t-134 36.5q-100 0 -299 -51l-41 258q183 51 404 51q79 0 141.5 -11t117 -39.5t90.5 -74.5t56.5 -118.5t20.5 -168.5v-610h-295l-10 82h-5q-120 -100 -280 -100q-161 0 -245.5 86t-84.5 227zM160 1135l235 331 h295l250 -331h-303l-84 141h-12l-82 -141h-299zM356 317q0 -46 28.5 -74t78.5 -28q49 0 88.5 12.5t60 31t31 35t10.5 28.5v106l-155 -2q-142 -3 -142 -109z" />
<glyph unicode="&#xe3;" horiz-adv-x="1054" d="M47 295q0 155 107.5 241.5t304.5 86.5h194q-3 68 -42 104.5t-134 36.5q-100 0 -299 -51l-41 258q183 51 404 51q79 0 141.5 -11t117 -39.5t90.5 -74.5t56.5 -118.5t20.5 -168.5v-610h-295l-10 82h-5q-120 -100 -280 -100q-161 0 -245.5 86t-84.5 227zM111 1204 q39 125 109.5 200t168.5 75q42 0 79.5 -9.5t55 -18t49.5 -27.5q6 -3 9 -5q4 -2 17.5 -9.5t18.5 -10t16.5 -8t18.5 -7.5t17.5 -4t19.5 -2q70 0 121 101l197 -64q-37 -133 -108 -214t-167 -81q-92 0 -190 62l-23 11.5t-25 12t-20 8t-25 7.5t-22 2q-70 0 -119 -103zM356 317 q0 -46 28.5 -74t78.5 -28q49 0 88.5 12.5t60 31t31 35t10.5 28.5v106l-155 -2q-142 -3 -142 -109z" />
<glyph unicode="&#xe4;" horiz-adv-x="1054" d="M47 295q0 155 107.5 241.5t304.5 86.5h194q-3 68 -42 104.5t-134 36.5q-100 0 -299 -51l-41 258q183 51 404 51q79 0 141.5 -11t117 -39.5t90.5 -74.5t56.5 -118.5t20.5 -168.5v-610h-295l-10 82h-5q-120 -100 -280 -100q-161 0 -245.5 86t-84.5 227zM115 1321 q0 85 59.5 138.5t147.5 53.5t147 -53.5t59 -138.5t-59 -139t-147 -54t-147.5 54t-59.5 139zM356 317q0 -46 28.5 -74t78.5 -28q49 0 88.5 12.5t60 31t31 35t10.5 28.5v106l-155 -2q-142 -3 -142 -109zM573 1321q0 85 59.5 138.5t147.5 53.5t147.5 -53.5t59.5 -138.5 t-59.5 -139t-147.5 -54t-147.5 54t-59.5 139z" />
<glyph unicode="&#xe5;" horiz-adv-x="1054" d="M47 295q0 155 107.5 241.5t304.5 86.5h194q-3 68 -42 104.5t-134 36.5q-100 0 -299 -51l-41 258q183 51 404 51q79 0 141.5 -11t117 -39.5t90.5 -74.5t56.5 -118.5t20.5 -168.5v-610h-295l-10 82h-5q-120 -100 -280 -100q-161 0 -245.5 86t-84.5 227zM303 1333 q0 99 69 167.5t177 68.5q103 0 174.5 -66.5t71.5 -169.5q0 -100 -69 -169.5t-177 -69.5q-103 0 -174.5 68t-71.5 171zM356 317q0 -46 28.5 -74t78.5 -28q49 0 88.5 12.5t60 31t31 35t10.5 28.5v106l-155 -2q-142 -3 -142 -109zM473 1335q0 -32 21.5 -53.5t52.5 -21.5 q33 0 55.5 22t22.5 55q0 30 -22.5 52t-55.5 22q-30 0 -52 -23t-22 -53z" />
<glyph unicode="&#xe6;" horiz-adv-x="1660" d="M43 291q0 150 110 233t328 84h172v8q0 146 -186 146q-146 0 -307 -53l-39 262q213 51 377 51q122 0 203.5 -28t132.5 -93h4q124 121 307 121q226 0 347.5 -142.5t121.5 -373.5q0 -63 -8 -90h-641q25 -81 100.5 -124.5t196.5 -43.5q130 0 249 57l54 -264 q-138 -59 -332 -59q-130 0 -233 36t-169 97h-8q-61 -61 -167 -97t-238 -36q-187 0 -281 85t-94 224zM344 313q0 -45 34.5 -71.5t106.5 -26.5q76 0 122 40.5t46 76.5v88l-137 -2q-88 0 -130 -25.5t-42 -79.5zM963 606h346q-9 74 -49.5 114t-106.5 40q-71 0 -120.5 -39 t-69.5 -115z" />
<glyph unicode="&#xe7;" horiz-adv-x="1058" d="M57 496q0 238 155 382t421 144q186 0 332 -76l-54 -311q-135 100 -280 100q-114 0 -182 -65.5t-68 -173.5q0 -104 67 -167t197 -63q73 0 133 16.5t144 59.5l67 -287q-174 -75 -356 -75h-17l-24 -43l2 -5q95 -5 147 -50t52 -126q0 -82 -67.5 -129t-209.5 -47 q-52 0 -139 10v140q54 -15 115 -15q96 0 96 56q0 67 -172 67v80l39 74v6q-192 42 -295 174t-103 324z" />
<glyph unicode="&#xe8;" horiz-adv-x="1118" d="M57 518q0 217 145.5 360.5t366.5 143.5q152 0 262.5 -66.5t165 -179.5t54.5 -258q0 -57 -9 -102h-661q45 -174 313 -174q140 0 281 61l33 -262q-67 -29 -167.5 -44t-183.5 -15q-293 0 -446.5 145.5t-153.5 390.5zM178 1466l389 -2l197 -325h-318zM377 604l364 2 q-13 77 -60 118.5t-114 41.5q-72 0 -123.5 -42.5t-66.5 -119.5z" />
<glyph unicode="&#xe9;" horiz-adv-x="1118" d="M57 518q0 217 145.5 360.5t366.5 143.5q152 0 262.5 -66.5t165 -179.5t54.5 -258q0 -57 -9 -102h-661q45 -174 313 -174q140 0 281 61l33 -262q-67 -29 -167.5 -44t-183.5 -15q-293 0 -446.5 145.5t-153.5 390.5zM377 604l364 2q-13 77 -60 118.5t-114 41.5 q-72 0 -123.5 -42.5t-66.5 -119.5zM426 1137l201 325l387 2l-269 -327h-319z" />
<glyph unicode="&#xea;" horiz-adv-x="1097" d="M57 518q0 217 145.5 360.5t366.5 143.5q152 0 262.5 -66.5t165 -179.5t54.5 -258q0 -57 -9 -102h-661q45 -174 313 -174q140 0 281 61l33 -262q-67 -29 -167.5 -44t-183.5 -15q-293 0 -446.5 145.5t-153.5 390.5zM193 1135l235 331h295l250 -331h-303l-84 141h-13 l-81 -141h-299zM377 604l364 2q-13 77 -60 118.5t-114 41.5q-72 0 -123.5 -42.5t-66.5 -119.5z" />
<glyph unicode="&#xeb;" horiz-adv-x="1097" d="M57 518q0 217 145.5 360.5t366.5 143.5q152 0 262.5 -66.5t165 -179.5t54.5 -258q0 -57 -9 -102h-661q45 -174 313 -174q140 0 281 61l33 -262q-67 -29 -167.5 -44t-183.5 -15q-293 0 -446.5 145.5t-153.5 390.5zM147 1321q0 85 59.5 138.5t147.5 53.5t147.5 -53.5 t59.5 -138.5t-59.5 -139t-147.5 -54t-147.5 54t-59.5 139zM377 604l364 2q-13 77 -60 118.5t-114 41.5q-72 0 -123.5 -42.5t-66.5 -119.5zM606 1321q0 85 59.5 138.5t147.5 53.5t147.5 -53.5t59.5 -138.5t-59.5 -139t-147.5 -54t-147.5 54t-59.5 139z" />
<glyph unicode="&#xec;" horiz-adv-x="552" d="M-39 1446l328 -2l147 -307h-301zM117 0v1001h317v-1001h-317z" />
<glyph unicode="&#xed;" horiz-adv-x="552" d="M117 0v1001h317v-1001h-317zM139 1137l201 325l387 2l-268 -327h-320z" />
<glyph unicode="&#xee;" horiz-adv-x="552" d="M-113 1135l236 331h295l250 -331h-303l-84 141h-13l-82 -141h-299zM117 0v1001h317v-1001h-317z" />
<glyph unicode="&#xef;" horiz-adv-x="552" d="M-125 1309q0 77 55.5 132.5t132.5 55.5q73 0 129 -56t56 -132t-56 -131.5t-129 -55.5q-77 0 -132.5 55.5t-55.5 131.5zM117 0v1001h317v-1001h-317zM307 1309q0 75 55 130.5t130 55.5q71 0 125.5 -55.5t54.5 -130.5q0 -76 -54.5 -131.5t-125.5 -55.5q-75 0 -130 55.5 t-55 131.5z" />
<glyph unicode="&#xf0;" horiz-adv-x="1179" d="M57 463q0 147 65 257t171 165t237 55q70 0 175 -31q-74 124 -183 213l-129 -98l-133 154l78 61v6q-91 42 -137 58l133 217q134 -47 233 -101l142 111l133 -162l-90 -70v-2q176 -141 272 -336.5t96 -433.5h-2v-2q0 -245 -149.5 -394.5t-388.5 -149.5q-146 0 -266 63 t-188.5 174t-68.5 246zM381 485q0 -93 58.5 -157t148.5 -64q88 0 147.5 62.5t59.5 158.5q0 86 -58.5 144.5t-152.5 58.5q-86 0 -144.5 -59.5t-58.5 -143.5z" />
<glyph unicode="&#xf1;" horiz-adv-x="1183" d="M104 0v1001h322v-120q123 141 303 141q361 0 361 -422v-600h-322v522q0 119 -37.5 166t-122.5 47q-84 0 -133 -58.5t-49 -172.5v-504h-322zM166 1204q39 125 109.5 200t168.5 75q42 0 79.5 -9.5t55 -18t49.5 -27.5q6 -3 9 -5q4 -2 17.5 -9.5t18.5 -10t16.5 -8t18.5 -7.5 t17.5 -4t19.5 -2q70 0 121 101l197 -64q-37 -133 -108 -214t-167 -81q-92 0 -190 62l-23 11.5t-25 12t-20 8t-25 7.5t-22 2q-69 0 -118 -103z" />
<glyph unicode="&#xf2;" horiz-adv-x="1202" d="M55 500q0 230 151 376t396 146q242 0 393.5 -145t151.5 -377q0 -230 -152 -375t-393 -145q-244 0 -395.5 145.5t-151.5 374.5zM203 1466l389 -2l196 -325h-317zM379 500q0 -99 62.5 -167.5t160.5 -68.5q95 0 158 68t63 168q0 103 -62 169t-159 66q-99 0 -161 -66.5 t-62 -168.5z" />
<glyph unicode="&#xf3;" horiz-adv-x="1202" d="M55 500q0 230 151 376t396 146q242 0 393.5 -145t151.5 -377q0 -230 -152 -375t-393 -145q-244 0 -395.5 145.5t-151.5 374.5zM379 500q0 -99 62.5 -167.5t160.5 -68.5q95 0 158 68t63 168q0 103 -62 169t-159 66q-99 0 -161 -66.5t-62 -168.5zM451 1137l200 325l387 2 l-268 -327h-319z" />
<glyph unicode="&#xf4;" horiz-adv-x="1202" d="M55 500q0 230 151 376t396 146q242 0 393.5 -145t151.5 -377q0 -230 -152 -375t-393 -145q-244 0 -395.5 145.5t-151.5 374.5zM213 1135l236 331h294l250 -331h-303l-84 141h-12l-82 -141h-299zM379 500q0 -99 62.5 -167.5t160.5 -68.5q95 0 158 68t63 168q0 103 -62 169 t-159 66q-99 0 -161 -66.5t-62 -168.5z" />
<glyph unicode="&#xf5;" horiz-adv-x="1202" d="M55 500q0 230 151 376t396 146q242 0 393.5 -145t151.5 -377q0 -230 -152 -375t-393 -145q-244 0 -395.5 145.5t-151.5 374.5zM164 1204q39 125 109.5 200t168.5 75q42 0 79.5 -9.5t55 -18t49.5 -27.5q6 -3 9 -5q4 -2 17.5 -9.5t18.5 -10t16.5 -8t18.5 -7.5t17.5 -4 t19.5 -2q70 0 121 101l197 -64q-37 -133 -108 -214t-167 -81q-92 0 -190 62l-23 11.5t-25 12t-20 8t-25 7.5t-22 2q-70 0 -119 -103zM379 500q0 -99 62.5 -167.5t160.5 -68.5q95 0 158 68t63 168q0 103 -62 169t-159 66q-99 0 -161 -66.5t-62 -168.5z" />
<glyph unicode="&#xf6;" horiz-adv-x="1202" d="M55 500q0 230 151 376t396 146q242 0 393.5 -145t151.5 -377q0 -230 -152 -375t-393 -145q-244 0 -395.5 145.5t-151.5 374.5zM168 1321q0 85 59.5 138.5t147.5 53.5t147.5 -53.5t59.5 -138.5t-59.5 -139t-147.5 -54t-147.5 54t-59.5 139zM379 500q0 -99 62.5 -167.5 t160.5 -68.5q95 0 158 68t63 168q0 103 -62 169t-159 66q-99 0 -161 -66.5t-62 -168.5zM627 1321q0 85 59.5 138.5t147.5 53.5t147 -53.5t59 -138.5t-59 -139t-147 -54t-147.5 54t-59.5 139z" />
<glyph unicode="&#xf7;" horiz-adv-x="1134" d="M90 430v275h979v-275h-979zM373 160q0 82 56.5 133t139.5 51q84 0 140.5 -51t56.5 -133q0 -80 -57 -131.5t-140 -51.5t-139.5 51.5t-56.5 131.5zM373 985q0 82 56.5 133t139.5 51q84 0 140.5 -51t56.5 -133q0 -80 -57 -131t-140 -51t-139.5 51t-56.5 131z" />
<glyph unicode="&#xf8;" horiz-adv-x="1193" d="M55 500q0 230 151 376t396 146q167 0 299 -74l105 113l129 -121l-99 -106q111 -140 111 -334q0 -230 -152 -375t-393 -145q-165 0 -291 69l-100 -110l-129 120l92 101q-119 138 -119 340zM379 500q0 -52 18 -99l293 318q-43 16 -88 16q-99 0 -161 -66.5t-62 -168.5z M524 279q34 -15 78 -15q95 0 158 68t63 168q0 50 -14 88z" />
<glyph unicode="&#xf9;" horiz-adv-x="1159" d="M90 408v593h320v-514q0 -121 35.5 -171t117.5 -50q77 0 126.5 61.5t49.5 178.5v495h322v-1001h-322v113h-6q-110 -131 -282 -131q-361 0 -361 426zM193 1466l389 -2l196 -325h-317z" />
<glyph unicode="&#xfa;" horiz-adv-x="1159" d="M90 408v593h320v-514q0 -121 35.5 -171t117.5 -50q77 0 126.5 61.5t49.5 178.5v495h322v-1001h-322v113h-6q-110 -131 -282 -131q-361 0 -361 426zM426 1137l201 325l387 2l-269 -327h-319z" />
<glyph unicode="&#xfb;" horiz-adv-x="1159" d="M90 408v593h320v-514q0 -121 35.5 -171t117.5 -50q77 0 126.5 61.5t49.5 178.5v495h322v-1001h-322v113h-6q-110 -131 -282 -131q-361 0 -361 426zM193 1135l235 331h295l250 -331h-303l-84 141h-13l-81 -141h-299z" />
<glyph unicode="&#xfc;" horiz-adv-x="1159" d="M90 408v593h320v-514q0 -121 35.5 -171t117.5 -50q77 0 126.5 61.5t49.5 178.5v495h322v-1001h-322v113h-6q-110 -131 -282 -131q-361 0 -361 426zM147 1321q0 85 59.5 138.5t147.5 53.5t147.5 -53.5t59.5 -138.5t-59.5 -139t-147.5 -54t-147.5 54t-59.5 139zM606 1321 q0 85 59.5 138.5t147.5 53.5t147.5 -53.5t59.5 -138.5t-59.5 -139t-147.5 -54t-147.5 54t-59.5 139z" />
<glyph unicode="&#xfd;" horiz-adv-x="1089" d="M14 1001h332l203 -542h6l193 542h327l-551 -1472h-317l199 539zM367 1137l200 325l387 2l-268 -327h-319z" />
<glyph unicode="&#xfe;" horiz-adv-x="1230" d="M104 -471v1978h322v-614h4q114 129 295 129q194 0 321.5 -137.5t127.5 -362.5q0 -248 -139.5 -394t-364.5 -146q-149 0 -244 63v-516h-322zM408 340q107 -78 206 -78q97 0 165.5 68.5t68.5 175.5q0 104 -63 167.5t-154 63.5q-97 0 -160 -74t-63 -204v-119z" />
<glyph unicode="&#xff;" horiz-adv-x="1089" d="M14 1001h332l203 -542h6l193 542h327l-551 -1472h-317l199 539zM115 1321q0 85 59.5 138.5t147.5 53.5t147 -53.5t59 -138.5t-59 -139t-147 -54t-147.5 54t-59.5 139zM573 1321q0 85 59.5 138.5t147.5 53.5t147.5 -53.5t59.5 -138.5t-59.5 -139t-147.5 -54t-147.5 54 t-59.5 139z" />
<glyph unicode="&#x152;" horiz-adv-x="1937" d="M74 727q0 155 54.5 290t151.5 231.5t236.5 151.5t302.5 54h1006v-303h-613v-283h490v-295h-490v-268h654v-305h-1047q-217 0 -387.5 94.5t-264 260t-93.5 372.5zM430 727q0 -171 112 -291t277 -119h64v820h-64q-166 0 -277.5 -119t-111.5 -291z" />
<glyph unicode="&#x153;" horiz-adv-x="1683" d="M57 500q0 232 137 377t351 145q182 0 309 -127h4q121 127 309 127q226 0 347.5 -142.5t121.5 -373.5q0 -67 -8 -94h-606q43 -164 262 -164q131 0 250 57l53 -264q-138 -59 -332 -59q-255 0 -393 131h-4q-130 -133 -323 -133q-214 0 -346 143.5t-132 376.5zM381 500 q0 -106 47.5 -171t126.5 -65q73 0 114.5 65t41.5 163q0 113 -44.5 178t-117.5 65t-120.5 -64.5t-47.5 -170.5zM1022 600h311q-9 77 -46 118.5t-95 41.5q-60 0 -106 -40.5t-64 -119.5z" />
<glyph unicode="&#x178;" horiz-adv-x="1292" d="M-4 1454h391l254 -481h8l250 481h397l-479 -821v-633h-346v633zM213 1780q0 85 59.5 138.5t147.5 53.5t147.5 -53.5t59.5 -138.5t-59.5 -139t-147.5 -54t-147.5 54t-59.5 139zM672 1780q0 85 59.5 138.5t147.5 53.5t147 -53.5t59 -138.5t-59 -139t-147 -54t-147.5 54 t-59.5 139z" />
<glyph unicode="&#x2c6;" horiz-adv-x="944" d="M82 1085l235 332h295l250 -332h-303l-84 142h-12l-82 -142h-299z" />
<glyph unicode="&#x2dc;" horiz-adv-x="1011" d="M57 1155q39 125 110 200t169 75q16 0 30 -1t28 -4t23.5 -4.5t23 -7t19 -7t19.5 -9t16.5 -8.5t17.5 -10l15 -9q1 -1 17 -9.5t19.5 -10.5t16.5 -8t19.5 -7.5t17 -3.5t19.5 -2q70 0 121 101l196 -64q-37 -133 -107.5 -214t-166.5 -81q-93 0 -191 62l-23 11.5t-24.5 12 t-20.5 8.5t-24 7t-22 2q-70 0 -119 -103z" />
<glyph unicode="&#x2000;" horiz-adv-x="1014" />
<glyph unicode="&#x2001;" horiz-adv-x="2028" />
<glyph unicode="&#x2002;" horiz-adv-x="1014" />
<glyph unicode="&#x2003;" horiz-adv-x="2028" />
<glyph unicode="&#x2004;" horiz-adv-x="676" />
<glyph unicode="&#x2005;" horiz-adv-x="507" />
<glyph unicode="&#x2006;" horiz-adv-x="338" />
<glyph unicode="&#x2007;" horiz-adv-x="338" />
<glyph unicode="&#x2008;" horiz-adv-x="253" />
<glyph unicode="&#x2009;" horiz-adv-x="405" />
<glyph unicode="&#x200a;" horiz-adv-x="112" />
<glyph unicode="&#x2010;" horiz-adv-x="778" d="M76 485v295h626v-295h-626z" />
<glyph unicode="&#x2011;" horiz-adv-x="778" d="M76 485v295h626v-295h-626z" />
<glyph unicode="&#x2012;" horiz-adv-x="778" d="M76 485v295h626v-295h-626z" />
<glyph unicode="&#x2013;" horiz-adv-x="1107" d="M76 475v270h956v-270h-956z" />
<glyph unicode="&#x2014;" horiz-adv-x="2064" d="M76 475v270h1913v-270h-1913z" />
<glyph unicode="&#x2018;" horiz-adv-x="595" d="M80 1092q0 142 81.5 247t229.5 166l84 -116q-109 -102 -139 -179q73 -5 117.5 -51.5t44.5 -120.5q0 -84 -60.5 -140.5t-150.5 -55.5q-90 2 -148.5 64.5t-58.5 185.5z" />
<glyph unicode="&#x2019;" horiz-adv-x="595" d="M98 1315q0 84 60.5 140.5t150.5 55.5q90 -2 148.5 -64t58.5 -185q0 -142 -81.5 -247.5t-229.5 -166.5l-84 117q110 103 139 178q-73 5 -117.5 51.5t-44.5 120.5z" />
<glyph unicode="&#x201a;" horiz-adv-x="516" d="M76 174q0 84 60.5 141t150.5 56q90 -2 148.5 -64.5t58.5 -185.5q0 -142 -82 -247.5t-230 -166.5l-84 117q111 104 140 178q-73 5 -117.5 51.5t-44.5 120.5z" />
<glyph unicode="&#x201c;" horiz-adv-x="1093" d="M63 1094q0 142 82 246.5t230 166.5l84 -116q-111 -104 -140 -179q73 -5 117.5 -51.5t44.5 -120.5q0 -84 -60.5 -140.5t-150.5 -55.5q-90 2 -148.5 64.5t-58.5 185.5zM561 1094q0 142 81.5 247t229.5 166l84 -116q-109 -102 -139 -179q73 -5 117.5 -51.5t44.5 -120.5 q0 -84 -60.5 -140.5t-150.5 -55.5q-90 2 -148.5 64.5t-58.5 185.5z" />
<glyph unicode="&#x201d;" horiz-adv-x="1093" d="M98 1315q0 84 60.5 140.5t150.5 55.5q90 -2 148.5 -64t58.5 -185q0 -142 -81.5 -247.5t-229.5 -166.5l-84 117q110 103 139 178q-73 5 -117.5 51.5t-44.5 120.5zM596 1315q0 84 60.5 140.5t150.5 55.5q90 -2 148.5 -64t58.5 -185q0 -142 -82 -247.5t-230 -166.5l-84 117 q111 104 140 178q-73 5 -117.5 51.5t-44.5 120.5z" />
<glyph unicode="&#x201e;" horiz-adv-x="1013" d="M76 168q0 84 60.5 141t150.5 56q90 -2 148.5 -64.5t58.5 -185.5q0 -142 -82 -247.5t-230 -166.5l-84 117q111 104 140 178q-73 5 -117.5 51.5t-44.5 120.5zM573 168q0 84 60.5 141t150.5 56q90 -2 148.5 -64.5t58.5 -185.5q0 -142 -81.5 -247.5t-229.5 -166.5l-84 117 q110 103 139 178q-73 5 -117.5 51.5t-44.5 120.5z" />
<glyph unicode="&#x2022;" horiz-adv-x="845" d="M166 647q0 107 75 181.5t181 74.5q107 0 182.5 -74.5t75.5 -181.5q0 -106 -75.5 -181t-182.5 -75q-106 0 -181 75t-75 181z" />
<glyph unicode="&#x2026;" horiz-adv-x="2060" d="M129 172q0 85 59.5 139t147.5 54t147.5 -54t59.5 -139t-59.5 -138.5t-147.5 -53.5t-147.5 53.5t-59.5 138.5zM813 172q0 85 59.5 139t147.5 54t147.5 -54t59.5 -139t-59.5 -138.5t-147.5 -53.5t-147.5 53.5t-59.5 138.5zM1497 172q0 85 59.5 139t147.5 54t147.5 -54 t59.5 -139t-59.5 -138.5t-147.5 -53.5t-147.5 53.5t-59.5 138.5z" />
<glyph unicode="&#x202f;" horiz-adv-x="405" />
<glyph unicode="&#x2039;" horiz-adv-x="614" d="M88 506l238 420h301l-242 -420l240 -412h-303z" />
<glyph unicode="&#x203a;" horiz-adv-x="612" d="M16 926h301l238 -420l-233 -412h-304l240 412z" />
<glyph unicode="&#x205f;" horiz-adv-x="507" />
<glyph unicode="&#x20ac;" horiz-adv-x="1220" d="M12 477v150h117q-2 16 -2 49q0 39 2 57h-117v150h142q57 221 226.5 356t418.5 135q207 0 381 -121l-195 -239q-83 55 -186 55q-88 0 -163.5 -49t-117.5 -137h400v-150h-443q-2 -18 -2 -57q0 -33 2 -49h443v-150h-402q42 -88 116.5 -139t166.5 -51q114 0 205 63l184 -246 q-173 -120 -389 -120q-233 0 -412.5 129t-236.5 364h-138z" />
<glyph unicode="&#x2122;" horiz-adv-x="1386" d="M29 1286v168h516v-168h-164v-493h-188v493h-164zM627 793v661h192l158 -319l153 319h193v-661h-184v315l-105 -195h-119l-104 195v-315h-184z" />
<glyph unicode="&#x25fc;" horiz-adv-x="1003" d="M0 0v1004h1004v-1004h-1004z" />
</font>
</defs>
</svg>
